<!-- Generated by IcoMoon.io -->
<svg version="1.1" xmlns="http://www.w3.org/2000/svg" width="1024" height="1024" viewBox="0 0 1024 1024">
<title></title>
<g id="icomoon-ignore">
</g>
<path d="M512 284.706c-44.954 0-88.898 13.331-126.277 38.306-37.379 24.977-66.512 60.473-83.715 102.005s-21.705 87.236-12.934 131.325c8.77 44.092 30.418 84.591 62.207 116.378 31.786 31.789 72.285 53.438 116.378 62.208 44.089 8.77 89.793 4.268 131.325-12.936s77.029-46.336 102.005-83.715c24.977-37.379 38.307-81.324 38.307-126.277 0-60.283-23.947-118.094-66.575-160.72-42.626-42.629-100.436-66.574-160.72-66.574zM512 679.999c-33.226 0-65.708-9.851-93.335-28.314-27.63-18.459-49.161-44.698-61.877-75.394-12.716-30.699-16.044-64.479-9.559-97.066 6.481-32.59 22.483-62.524 45.978-86.019s53.429-39.496 86.019-45.978c32.587-6.484 66.367-3.156 97.066 9.559 30.696 12.716 56.934 34.247 75.394 61.877 18.462 27.627 28.314 60.109 28.314 93.335-0.13 44.517-17.872 87.173-49.351 118.648-31.476 31.479-74.132 49.221-118.648 49.351zM729.413 27.765h-434.825c-70.766 0-138.634 28.112-188.673 78.151s-78.151 117.907-78.151 188.673v434.825c0 70.764 28.112 138.632 78.151 188.672 50.039 50.037 117.907 78.149 188.673 78.149h434.825c70.764 0 138.632-28.112 188.672-78.149 50.037-50.040 78.149-117.908 78.149-188.672v-434.825c0-70.766-28.112-138.634-78.149-188.673-50.040-50.039-117.908-78.151-188.672-78.151zM936.942 729.413c0 55.040-21.865 107.824-60.783 146.745-38.921 38.918-91.705 60.783-146.745 60.783h-434.825c-55.040 0-107.826-21.865-146.746-60.783-38.919-38.921-60.784-91.705-60.784-146.745v-434.825c0-55.040 21.865-107.826 60.784-146.746s91.705-60.784 146.746-60.784h434.825c55.040 0 107.824 21.865 146.745 60.784 38.918 38.92 60.783 91.705 60.783 146.746v434.825zM818.354 255.059c0 9.773-2.897 19.326-8.328 27.452s-13.146 14.459-22.176 18.199c-9.029 3.741-18.965 4.72-28.549 2.813-9.586-1.909-18.39-6.614-25.299-13.524-6.912-6.91-11.616-15.715-13.526-25.3-1.906-9.585-0.928-19.52 2.813-28.549s10.074-16.746 18.2-22.175c8.126-5.429 17.679-8.328 27.449-8.328 13.107 0 25.675 5.206 34.939 14.472 9.267 9.267 14.475 21.835 14.475 34.939z"></path>
</svg>
