<!-- Generated by IcoMoon.io -->
<svg version="1.1" xmlns="http://www.w3.org/2000/svg" width="922" height="1024" viewBox="0 0 922 1024">
<title></title>
<g id="icomoon-ignore">
</g>
<path d="M852.39 745.766l-5.824-7.258c-46.098-58.284-84.626-88.614-117.688-92.6-28.582-3.899-56.225 15.859-85.614 36.198l-31.404 19.622c-3.763 1.882-7.483 3.405-10.977 4.434-18.368 5.197-64.735 8.243-90.988-15.77-30.554-27.955-77.952-79.117-114.824-123.827-35.213-46.277-73.92-103.98-94.124-140.314-17.070-30.776-2.778-73.83 6.764-89.779 1.882-3.136 4.347-6.226 7.078-9.272l27.686-25.582c0.404-0.402 0.584-0.896 0.942-1.254 0.269-0.269 0.717-0.179 1.029-0.402 24.998-21.102 50.849-42.829 54.387-70.74 4.168-32.794-16.218-77.146-62.405-135.386l-5.645-7.258c-28.582-36.646-71.816-92.064-133.907-82.925-24.416 3.629-46.234 11.962-68.723 26.073-0.224 0.134-0.358 0.403-0.538 0.538s-0.403 0.134-0.582 0.269l-31.315 23.206c-0.314 0.179-0.493 0.582-0.806 0.851-0.224 0.224-0.582 0.269-0.851 0.493-3.629 3.046-7.258 6.182-10.842 9.408-31.763 28.314-100.531 110.522-53.626 262.572 30.285 98.202 92.736 212.8 181.037 332.058l-0.851 0.717 48.698 60.659 0.402-0.312c95.739 113.254 193.178 200.794 282.465 253.791 59.584 35.392 111.642 47.086 154.47 47.086 56.358 0 96.722-20.25 116.972-33.421l12.723-8.512c1.434-0.986 2.465-2.376 3.494-3.63l27.732-20.877c0.312-0.269 0.492-0.627 0.806-0.896 0.133-0.133 0.358-0.090 0.538-0.223 19.712-18.010 33.375-36.872 42.872-59.226 24.596-57.3-19.443-112.179-48.563-148.513zM868.027 880.212c-7.393 17.382-18.189 32.166-33.779 46.502l-41.262 31.045c-37.363 24.282-117.24 54.298-233.272-14.605-89.288-52.997-187.579-142.597-284.301-259.123l-26.163-33.062c-91.078-120.781-155.142-236.454-185.382-334.477-39.29-127.455 10.214-195.82 43.366-225.343 3.36-3.046 6.72-5.869 10.035-8.691l0.134-0.134 30.061-22.266c18.278-11.558 35.213-18.010 54.701-20.966 41.619-6.272 75.488 37.632 100.351 69.53l5.824 7.392c51.61 65.094 56.584 96.051 54.971 108.685-1.792 14.022-23.117 31.988-41.933 47.801l-2.644 2.24c-0.090 0.090-0.133 0.225-0.223 0.315-0.136 0.090-0.269 0.133-0.404 0.223l-28.626 26.478c-0.179 0.179-0.269 0.402-0.448 0.627-0.179 0.223-0.538 0.312-0.717 0.538-4.436 4.972-8.243 9.946-11.336 15.096-16.082 26.926-31.269 82.568-7.301 125.619 20.92 37.632 60.749 97.083 97.349 145.108 38.259 46.413 87.048 99.098 118.676 127.992 23.698 21.64 56.671 28.897 85.21 28.897 15.276 0 29.299-2.107 39.916-5.107 5.601-1.613 11.379-3.942 17.339-6.856 0.358-0.179 0.538-0.492 0.896-0.717 0.179-0.090 0.448-0.044 0.627-0.179l33.242-20.787c1.075-0.717 1.792-1.656 2.688-2.552l0.402 0.448c20.475-14.203 43.814-30.868 58.419-28.449 12.948 1.569 42.337 14.024 94.036 79.296l5.957 7.483c25.178 31.404 59.674 74.412 43.592 112z"></path>
</svg>
