<!-- Generated by IcoMoon.io -->
<svg version="1.1" xmlns="http://www.w3.org/2000/svg" width="620" height="1024" viewBox="0 0 620 1024">
<title></title>
<g id="icomoon-ignore">
</g>
<path d="M578.894 21.369c-47.57-5.046-95.38-7.502-143.217-7.357-158.593 0-257.153 101.012-257.153 263.613v110.398h-133.221c-6.253 0-12.251 2.482-16.673 6.904s-6.906 10.421-6.906 16.675v181.558c0 6.252 2.484 12.25 6.906 16.672s10.419 6.907 16.673 6.907h133.221v364.059c0 6.252 2.484 12.25 6.906 16.672s10.419 6.907 16.673 6.907h187.594c6.254 0 12.25-2.485 16.672-6.907s6.907-10.421 6.907-16.672v-364.059h132.797c5.724 0.003 11.256-2.078 15.559-5.853s7.087-8.987 7.831-14.662l23.439-181.558c0.434-3.328 0.156-6.71-0.819-9.922-0.975-3.209-2.627-6.176-4.842-8.699-2.212-2.522-4.939-4.543-7.998-5.926-3.059-1.385-6.376-2.099-9.731-2.097h-156.235v-92.384c0-45.743 9.197-64.842 66.398-64.842h96.156c6.252 0 12.25-2.484 16.672-6.906s6.907-10.419 6.907-16.673v-162.459c0.003-5.724-2.078-11.255-5.853-15.559s-8.987-7.087-14.662-7.832zM552.251 183.592l-72.623 0.047c-101.721 0-113.51 63.946-113.51 112v116.008c0 6.246 2.476 12.237 6.89 16.656 4.411 4.419 10.396 6.909 16.643 6.923h153.075l-17.403 134.4h-135.626c-6.254 0-12.25 2.485-16.672 6.907s-6.907 10.418-6.907 16.672v363.965h-140.436v-363.965c0-6.254-2.484-12.25-6.906-16.672s-10.419-6.907-16.673-6.907h-133.174v-134.4h133.174c6.254 0 12.251-2.485 16.673-6.907s6.906-10.418 6.906-16.672v-134.023c0-135.532 78.519-216.455 209.995-216.455 47.581 0 90.543 2.594 116.574 4.857v117.565z"></path>
</svg>
