<!-- Generated by IcoMoon.io -->
<svg version="1.1" xmlns="http://www.w3.org/2000/svg" width="1024" height="1024" viewBox="0 0 1024 1024">
<title></title>
<g id="icomoon-ignore">
</g>
<path d="M512 285.538c-44.788 0-88.572 13.282-125.815 38.166-37.241 24.884-66.267 60.252-83.408 101.634-17.14 41.377-21.625 86.914-12.887 130.844s30.306 84.279 61.978 115.952c31.671 31.669 72.021 53.24 115.951 61.976 43.93 8.739 89.466 4.254 130.844-12.887 41.381-17.14 76.749-46.167 101.636-83.409 24.883-37.242 38.164-81.026 38.164-125.814 0-60.062-23.859-117.662-66.328-160.132-42.472-42.47-100.072-66.329-160.134-66.329zM512 679.385c-33.107 0-65.469-9.819-92.995-28.211-27.525-18.389-48.979-44.532-61.648-75.118s-15.983-64.24-9.525-96.709c6.459-32.473 22.4-62.295 45.81-85.705s53.232-39.351 85.705-45.81c32.469-6.458 66.123-3.144 96.709 9.525s56.73 34.123 75.118 61.648c18.393 27.526 28.211 59.888 28.211 92.995-0.13 44.355-17.806 86.851-49.168 118.217-31.366 31.362-73.862 49.038-118.217 49.168zM728.615 29.538h-433.231c-70.507 0-138.126 28.009-187.982 77.865s-77.865 117.475-77.865 187.982v433.231c0 70.506 28.009 138.126 77.865 187.983 49.856 49.853 117.475 77.863 187.982 77.863h433.231c70.506 0 138.126-28.010 187.983-77.863 49.853-49.857 77.863-117.476 77.863-187.983v-433.231c0-70.507-28.010-138.126-77.863-187.982-49.857-49.856-117.476-77.865-187.983-77.865zM935.385 728.615c0 54.839-21.784 107.429-60.562 146.208s-91.368 60.562-146.208 60.562h-433.231c-54.839 0-107.431-21.784-146.208-60.562s-60.561-91.368-60.561-146.208v-433.231c0-54.839 21.784-107.431 60.561-146.208s91.369-60.561 146.208-60.561h433.231c54.839 0 107.429 21.784 146.208 60.561s60.562 91.369 60.562 146.208v433.231zM817.231 256c0 9.737-2.887 19.255-8.298 27.351-5.408 8.096-13.095 14.406-22.091 18.132-8.999 3.726-18.897 4.701-28.448 2.801-9.547-1.9-18.322-6.588-25.206-13.473s-11.571-15.657-13.473-25.207c-1.898-9.55-0.926-19.449 2.804-28.444 3.726-8.996 10.035-16.685 18.129-22.094 8.097-5.409 17.617-8.297 27.353-8.297 13.056 0 25.58 5.187 34.812 14.419s14.419 21.754 14.419 34.811z"></path>
</svg>
