<!-- Generated by IcoMoon.io -->
<svg version="1.1" xmlns="http://www.w3.org/2000/svg" width="600" height="1024" viewBox="0 0 600 1024">
<title></title>
<g id="icomoon-ignore">
</g>
<path d="M564.496 39.833c-47.492-5.038-95.225-7.49-142.982-7.344-158.332 0-256.73 100.846-256.73 263.18v110.217h-133.002c-6.243 0-12.231 2.479-16.645 6.893s-6.895 10.402-6.895 16.645v181.262c0 6.243 2.48 12.228 6.895 16.645 4.415 4.414 10.402 6.893 16.645 6.893h133.002v363.464c0 6.243 2.48 12.228 6.895 16.645 4.415 4.414 10.402 6.893 16.646 6.893h187.286c6.243 0 12.232-2.479 16.645-6.893 4.414-4.417 6.896-10.402 6.896-16.645v-363.464h132.576c5.717 0.004 11.236-2.073 15.533-5.84s7.076-8.972 7.821-14.64l23.397-181.259c0.438-3.323 0.159-6.698-0.816-9.905s-2.624-6.169-4.834-8.686c-2.21-2.518-4.933-4.534-7.984-5.918-3.054-1.381-6.366-2.094-9.717-2.090h-155.976v-92.232c0-45.668 9.181-64.736 66.288-64.736h95.998c6.243 0 12.228-2.48 16.645-6.895 4.414-4.415 6.893-10.402 6.893-16.646v-162.192c0.004-5.715-2.073-11.236-5.84-15.533s-8.972-7.076-14.64-7.819zM537.897 201.79l-72.503 0.047c-101.553 0-113.324 63.841-113.324 111.816v115.819c0 6.232 2.474 12.214 6.877 16.628 4.407 4.414 10.381 6.9 16.617 6.91h152.823l-17.373 134.179h-135.405c-6.243 0-12.232 2.482-16.645 6.896s-6.895 10.402-6.895 16.645v363.368h-140.206v-363.368c0-6.243-2.48-12.232-6.895-16.645s-10.402-6.896-16.645-6.896h-132.955v-134.179h132.955c6.243 0 12.231-2.479 16.645-6.893 4.415-4.417 6.895-10.402 6.895-16.645v-133.804c0-135.309 78.389-216.099 209.65-216.099 47.503 0 90.394 2.589 116.383 4.849v117.372z"></path>
</svg>
