<!-- Generated by IcoMoon.io -->
<svg version="1.1" xmlns="http://www.w3.org/2000/svg" width="1024" height="1024" viewBox="0 0 1024 1024">
<title></title>
<g id="icomoon-ignore">
</g>
<path d="M884.957 734.634l-5.546-6.912c-43.904-55.51-80.598-84.394-112.086-88.192-27.222-3.712-53.546 15.104-81.536 34.474l-29.91 18.688c-3.584 1.792-7.123 3.245-10.451 4.224-17.494 4.95-61.654 7.853-86.656-15.018-29.101-26.624-74.24-75.35-109.357-117.93-33.536-44.077-70.4-99.030-89.642-133.632-16.256-29.312-2.646-70.317 6.442-85.504 1.792-2.989 4.141-5.933 6.742-8.832l26.368-24.363c0.384-0.384 0.554-0.853 0.896-1.195 0.256-0.256 0.682-0.171 0.982-0.384 23.808-20.096 48.426-40.789 51.795-67.371 3.968-31.232-15.443-73.472-59.434-128.939l-5.376-6.912c-27.222-34.901-68.395-87.68-127.531-78.976-23.253 3.456-44.032 11.392-65.451 24.832-0.213 0.128-0.341 0.384-0.512 0.512s-0.384 0.128-0.555 0.256l-29.824 22.101c-0.299 0.171-0.469 0.555-0.768 0.811-0.213 0.213-0.555 0.256-0.811 0.469-3.456 2.901-6.912 5.888-10.325 8.96-30.251 26.965-95.744 105.259-51.072 250.070 28.843 93.523 88.32 202.666 172.416 316.243l-0.811 0.685 46.379 57.77 0.384-0.298c91.178 107.859 183.978 191.232 269.014 241.706 56.746 33.706 106.323 44.842 147.114 44.842 53.674 0 92.118-19.283 111.402-31.827l12.118-8.109c1.366-0.938 2.346-2.259 3.328-3.456l26.41-19.882c0.301-0.256 0.47-0.598 0.768-0.854 0.128-0.128 0.342-0.083 0.512-0.211 18.774-17.152 31.789-35.117 40.832-56.406 23.424-54.57-18.515-106.838-46.25-141.44zM899.846 862.675c-7.040 16.557-17.322 30.637-32.17 44.288l-39.296 29.568c-35.584 23.126-111.658 51.712-222.166-13.907-85.034-50.477-178.643-135.808-270.762-246.784l-24.917-31.488c-86.741-115.030-147.755-225.197-176.555-318.55-37.419-121.386 9.728-186.496 41.301-214.613 3.2-2.901 6.4-5.589 9.557-8.277l0.128-0.128 28.629-21.205c17.408-11.008 33.536-17.152 52.096-19.968 39.637-5.973 71.894 35.84 95.574 66.219l5.546 7.040c49.152 61.995 53.888 91.477 52.352 103.509-1.706 13.355-22.016 30.464-39.936 45.525l-2.518 2.133c-0.083 0.085-0.128 0.213-0.211 0.299-0.128 0.085-0.256 0.128-0.384 0.213l-27.264 25.216c-0.173 0.171-0.256 0.384-0.429 0.597-0.17 0.213-0.512 0.299-0.682 0.512-4.224 4.736-7.85 9.472-10.794 14.377-15.318 25.645-29.782 78.637-6.957 119.638 19.926 35.84 57.856 92.458 92.717 138.198 36.435 44.202 82.899 94.378 113.024 121.898 22.57 20.608 53.971 27.52 81.152 27.52 14.547 0 27.904-2.006 38.016-4.864 5.331-1.536 10.835-3.754 16.512-6.528 0.339-0.17 0.512-0.47 0.851-0.682 0.173-0.086 0.429-0.045 0.598-0.173l31.658-19.795c1.024-0.685 1.709-1.581 2.56-2.432l0.384 0.426c19.501-13.526 41.728-29.398 55.638-27.094 12.33 1.494 40.32 13.357 89.558 75.52l5.674 7.126c23.978 29.91 56.832 70.87 41.514 106.666z"></path>
</svg>
