<!-- Generated by IcoMoon.io -->
<svg version="1.1" xmlns="http://www.w3.org/2000/svg" width="31" height="32" viewBox="0 0 31 32">
<title>proved-equipment-sign</title>
<path fill="#2b7fff" d="M8.56 12.129h-8.681c-0.267 0-0.482 0.207-0.482 0.463v2.776c0 0.256 0.216 0.463 0.482 0.463h0.482v10.642c0 0.256 0.216 0.463 0.482 0.463h6.752c0.267 0 0.482-0.207 0.482-0.463v-10.642h0.482c0.267 0 0.482-0.207 0.482-0.463v-2.776c0-0.256-0.216-0.463-0.482-0.463zM3.255 20.92v-0.925h2.894v-0.925h-2.894v-0.925h3.858v6.015h-3.858v-2.313h0.965v-0.925h-0.965zM7.113 17.219h-4.34c-0.267 0-0.482 0.207-0.482 0.463v6.94c0 0.256 0.216 0.463 0.482 0.463h4.34v0.925h-5.787v-10.179h5.787v1.388zM8.078 14.905h-7.716v-1.851h7.716v1.851z"></path>
<path fill="#2b7fff" d="M14.95 12.216v-3.383c0-0.263-0.216-0.476-0.482-0.476h-0.482v-2.382h0.964v-0.953h-5.305v0.953h3.376v2.382h-0.482c-0.267 0-0.482 0.213-0.482 0.476v3.383c-1.099 0.222-1.929 1.183-1.929 2.334v11.909c0 0.263 0.216 0.476 0.482 0.476h5.787c0.267 0 0.482-0.213 0.482-0.476v-11.909c0-1.15-0.83-2.112-1.929-2.334zM13.021 9.31h0.964v2.858h-0.964v-2.858zM12.539 13.121h1.929c0.798 0 1.447 0.641 1.447 1.429v0.476h-4.823v-0.476c0-0.788 0.649-1.429 1.447-1.429zM15.915 24.077h-4.823v-0.953h1.929v-0.953h-1.929v-6.193h4.823v8.098zM11.092 25.983v-0.953h4.823v0.953h-4.823z"></path>
<path fill="#2b7fff" d="M27.278 11.537h-8.138c-0.25 0-0.452 0.209-0.452 0.467v14.465c0 0.258 0.202 0.467 0.452 0.467h8.138c0.25 0 0.452-0.209 0.452-0.467v-14.465c0-0.258-0.202-0.467-0.452-0.467zM26.826 26.002h-7.234v-13.532h7.234v13.532z"></path>
<path fill="#2b7fff" d="M6.631 21.013h-1.206v0.592h1.206v-0.592z"></path>
<path fill="#2b7fff" d="M15.071 22.197h-1.206v1.185h1.206v-1.185z"></path>
<path fill="#2b7fff" d="M13.564 21.013c1.164 0 2.11-0.93 2.11-2.073s-0.946-2.073-2.11-2.073c-1.164 0-2.11 0.93-2.11 2.073s0.946 2.073 2.11 2.073zM13.564 17.904c0.582 0 1.055 0.465 1.055 1.036s-0.473 1.036-1.055 1.036c-0.582 0-1.055-0.465-1.055-1.036s0.473-1.036 1.055-1.036z"></path>
<path fill="#2b7fff" d="M22.079 16.275h2.261c0.873 0 1.582-0.664 1.582-1.481s-0.71-1.481-1.582-1.481h-2.261c-0.873 0-1.582 0.664-1.582 1.481s0.71 1.481 1.582 1.481zM25.017 14.794c0 0.35-0.304 0.634-0.678 0.634h-0.678v-1.269h0.678c0.374 0 0.678 0.285 0.678 0.635zM22.079 14.16h0.678v1.269h-0.678c-0.374 0-0.678-0.285-0.678-0.634s0.304-0.635 0.678-0.635z"></path>
<path fill="#2b7fff" d="M22.079 21.013h2.261c0.873 0 1.582-0.797 1.582-1.777s-0.71-1.777-1.582-1.777h-2.261c-0.873 0-1.582 0.797-1.582 1.777s0.71 1.777 1.582 1.777zM25.017 19.236c0 0.42-0.304 0.761-0.678 0.761h-0.678v-1.523h0.678c0.374 0 0.678 0.342 0.678 0.761zM22.079 18.475h0.678v1.523h-0.678c-0.374 0-0.678-0.342-0.678-0.761s0.304-0.761 0.678-0.761z"></path>
<path fill="#2b7fff" d="M22.079 25.159h2.261c0.873 0 1.582-0.797 1.582-1.777s-0.71-1.777-1.582-1.777h-2.261c-0.873 0-1.582 0.797-1.582 1.777s0.71 1.777 1.582 1.777zM25.017 23.382c0 0.42-0.304 0.761-0.678 0.761h-0.678v-1.523h0.678c0.374 0 0.678 0.342 0.678 0.761zM22.079 22.621h0.678v1.523h-0.678c-0.374 0-0.678-0.342-0.678-0.761s0.304-0.761 0.678-0.761z"></path>
</svg>
