<!-- Generated by IcoMoon.io -->
<svg version="1.1" xmlns="http://www.w3.org/2000/svg" width="32" height="32" viewBox="0 0 32 32">
<title>qualification-sign</title>
<path fill="#2b7fff" d="M16.061 1.4c-1.050 0-2.031 0.478-2.867 1.261s-1.551 1.874-2.148 3.195c-0.125 0.277-0.244 0.564-0.359 0.861-0.308-0.049-0.617-0.089-0.927-0.12-0.361-0.036-0.712-0.058-1.054-0.066-1.026-0.024-1.964 0.080-2.786 0.329-1.096 0.332-2 0.943-2.525 1.852s-0.601 1.998-0.341 3.113c0.26 1.115 0.847 2.28 1.693 3.457 0.178 0.247 0.367 0.494 0.567 0.742-0.196 0.242-0.385 0.489-0.566 0.741-0.846 1.177-1.433 2.342-1.693 3.457s-0.184 2.204 0.341 3.113c0.525 0.909 1.429 1.52 2.525 1.852s2.398 0.407 3.841 0.263c0.302-0.030 0.611-0.071 0.926-0.12 0.112 0.291 0.231 0.579 0.359 0.863 0.596 1.321 1.312 2.412 2.148 3.195s1.817 1.261 2.867 1.261c1.050 0 2.031-0.478 2.866-1.261s1.551-1.874 2.148-3.195c0.128-0.284 0.248-0.572 0.359-0.862 0.314 0.049 0.623 0.090 0.925 0.12 1.442 0.144 2.745 0.070 3.841-0.263s2.001-0.943 2.526-1.852c0.525-0.909 0.601-1.998 0.341-3.113s-0.847-2.28-1.693-3.457c-0.182-0.252-0.371-0.5-0.567-0.741 0.196-0.242 0.385-0.489 0.567-0.742 0.846-1.177 1.433-2.342 1.693-3.457s0.184-2.204-0.341-3.113c-0.525-0.909-1.429-1.52-2.525-1.852-0.822-0.249-1.76-0.353-2.786-0.329-0.342 0.008-0.694 0.030-1.055 0.066-0.302 0.030-0.612 0.071-0.926 0.12-0.111-0.29-0.231-0.577-0.359-0.861-0.596-1.321-1.312-2.412-2.148-3.195s-1.817-1.261-2.866-1.261l0 0zM16.061 2.568c0.7 0 1.387 0.308 2.068 0.946s1.331 1.603 1.882 2.823c0.090 0.199 0.175 0.4 0.255 0.603-1.339 0.298-2.756 0.754-4.205 1.364-1.449-0.61-2.866-1.066-4.205-1.364 0.083-0.207 0.167-0.409 0.255-0.603 0.551-1.22 1.201-2.185 1.882-2.823s1.368-0.946 2.068-0.946l-0 0zM8.337 7.696c0.113-0.001 0.227-0 0.344 0.002 0.31 0.007 0.632 0.027 0.965 0.060 0.213 0.021 0.43 0.048 0.652 0.080-0.412 1.308-0.725 2.764-0.921 4.324-1.253 0.95-2.357 1.95-3.284 2.96-0.136-0.172-0.268-0.346-0.395-0.524-0.781-1.087-1.292-2.133-1.504-3.041s-0.135-1.657 0.215-2.264c0.35-0.607 0.96-1.047 1.853-1.318 0.586-0.178 1.287-0.273 2.077-0.281l0 0zM23.785 7.696c0.789 0.007 1.491 0.103 2.077 0.281 0.893 0.271 1.503 0.711 1.853 1.318s0.427 1.355 0.215 2.264c-0.212 0.909-0.723 1.954-1.504 3.041-0.128 0.177-0.26 0.352-0.395 0.524-0.927-1.010-2.031-2.010-3.284-2.96-0.196-1.56-0.51-3.016-0.922-4.324 0.221-0.032 0.438-0.059 0.651-0.080 0.321-0.033 0.643-0.053 0.965-0.060 0.114-0.003 0.229-0.003 0.344-0.002v0zM20.665 8.049c0.311 0.965 0.568 2.029 0.76 3.169-0.62-0.419-1.255-0.816-1.903-1.19s-1.308-0.725-1.981-1.053c1.082-0.403 2.133-0.713 3.124-0.926v-0zM11.457 8.049c0.991 0.213 2.041 0.523 3.123 0.926-0.672 0.327-1.333 0.679-1.981 1.053s-1.282 0.77-1.902 1.189c0.192-1.139 0.449-2.203 0.76-3.168zM16.061 9.578c0.95 0.419 1.915 0.906 2.877 1.462s1.867 1.147 2.705 1.761c0.112 1.033 0.173 2.112 0.173 3.223s-0.060 2.189-0.172 3.222c-0.838 0.614-1.743 1.205-2.705 1.761s-1.927 1.043-2.877 1.462c-0.951-0.419-1.916-0.907-2.878-1.462s-1.866-1.147-2.704-1.76c-0.112-1.033-0.173-2.112-0.173-3.222s0.060-2.191 0.173-3.224c0.838-0.614 1.743-1.205 2.705-1.761s1.926-1.043 2.877-1.462v-0zM16.14 11.335l-3.344 2.064 3.344 2.064 3.344-2.064-3.344-2.064zM9.217 13.781c-0.053 0.746-0.079 1.494-0.079 2.243 0 0.762 0.027 1.511 0.079 2.241-0.891-0.736-1.684-1.491-2.364-2.242 0.68-0.751 1.473-1.506 2.364-2.242zM22.905 13.781c0.89 0.736 1.683 1.49 2.363 2.242-0.68 0.751-1.473 1.506-2.363 2.242 0.052-0.746 0.079-1.493 0.078-2.241 0-0.763-0.027-1.511-0.079-2.242h0zM12.043 14.306v4.075l3.512 2.167v-4.075l-3.512-2.168zM20.234 14.308l-3.511 2.167v4.073l3.511-2.167v-4.073h-0zM6.091 16.923c0.927 1.011 2.031 2.010 3.284 2.96 0.196 1.56 0.51 3.016 0.921 4.323-0.221 0.032-0.438 0.059-0.65 0.080-1.331 0.133-2.493 0.053-3.386-0.218s-1.502-0.712-1.853-1.318c-0.35-0.607-0.427-1.355-0.215-2.264s0.723-1.954 1.504-3.041c0.128-0.177 0.259-0.352 0.395-0.523zM26.030 16.923c0.138 0.175 0.27 0.349 0.395 0.523 0.781 1.087 1.292 2.133 1.504 3.041s0.135 1.657-0.215 2.264c-0.35 0.606-0.96 1.047-1.853 1.318s-2.054 0.351-3.386 0.218c-0.217-0.022-0.434-0.049-0.65-0.080 0.412-1.308 0.725-2.764 0.921-4.324 1.252-0.95 2.357-1.949 3.283-2.959v0zM21.425 20.828c-0.192 1.139-0.449 2.204-0.76 3.169-0.991-0.213-2.041-0.523-3.124-0.926 0.673-0.328 1.333-0.679 1.981-1.053s1.283-0.771 1.903-1.189h-0zM10.698 20.829c0.62 0.418 1.254 0.815 1.902 1.189s1.309 0.725 1.981 1.053c-1.082 0.403-2.132 0.713-3.123 0.926-0.311-0.965-0.568-2.029-0.759-3.168zM16.096 20.882l0.043 0.026 0.042-0.026h-0.085zM16.061 23.743c1.449 0.61 2.867 1.067 4.206 1.364-0.081 0.203-0.166 0.405-0.256 0.604-0.551 1.22-1.201 2.185-1.882 2.823s-1.368 0.946-2.068 0.946c-0.7 0-1.387-0.308-2.068-0.946s-1.331-1.603-1.882-2.823c-0.090-0.2-0.175-0.401-0.256-0.604 1.339-0.298 2.756-0.754 4.205-1.364h-0z"></path>
</svg>
