<svg aria-hidden="true" style="position: absolute; width: 0; height: 0; overflow: hidden;" version="1.1" xmlns="http://www.w3.org/2000/svg" xmlns:xlink="http://www.w3.org/1999/xlink">
<defs>
<symbol id="icon-arrow_back" viewBox="0 0 36 32">
<path d="M1.062 17.414c-0.781-0.781-0.781-2.047 0-2.828l12.728-12.728c0.781-0.781 2.047-0.781 2.828 0s0.781 2.047 0 2.828l-11.314 11.314 11.314 11.314c0.781 0.781 0.781 2.047 0 2.828s-2.047 0.781-2.828 0l-12.728-12.728zM36 18h-33.524v-4h33.524v4z"></path>
</symbol>
<symbol id="icon-Arrow_forward" viewBox="0 0 36 32">
<path d="M35.414 14.586c0.781 0.781 0.781 2.047 0 2.828l-12.728 12.728c-0.781 0.781-2.047 0.781-2.828 0s-0.781-2.047 0-2.828l11.314-11.314-11.314-11.314c-0.781-0.781-0.781-2.047 0-2.828s2.047-0.781 2.828 0l12.728 12.728zM34 18h-33.524v-4h33.524v4z"></path>
</symbol>
<symbol id="icon-footer_facebook" viewBox="0 0 19 32">
<path d="M18.090 0.668c-1.487-0.158-2.981-0.234-4.476-0.23-4.956 0-8.036 3.157-8.036 8.238v3.45h-4.163c-0.195 0-0.383 0.078-0.521 0.216s-0.216 0.326-0.216 0.521v5.674c0 0.195 0.078 0.383 0.216 0.521s0.326 0.216 0.521 0.216h4.163v11.377c0 0.195 0.078 0.383 0.216 0.521s0.326 0.216 0.521 0.216h5.862c0.195 0 0.383-0.078 0.521-0.216s0.216-0.326 0.216-0.521v-11.377h4.15c0.179 0 0.352-0.065 0.486-0.183s0.221-0.281 0.245-0.458l0.732-5.674c0.014-0.104 0.005-0.21-0.026-0.31s-0.082-0.193-0.151-0.272c-0.069-0.079-0.154-0.142-0.25-0.185s-0.199-0.066-0.304-0.066h-4.882v-2.887c0-1.429 0.287-2.026 2.075-2.026h3.005c0.195 0 0.383-0.078 0.521-0.216s0.216-0.326 0.216-0.521v-5.077c0-0.179-0.065-0.352-0.183-0.486s-0.281-0.221-0.458-0.245zM17.258 5.737l-2.269 0.001c-3.179 0-3.547 1.998-3.547 3.5v3.625c0 0.195 0.077 0.382 0.215 0.521s0.325 0.216 0.52 0.216h4.784l-0.544 4.2h-4.238c-0.195 0-0.383 0.078-0.521 0.216s-0.216 0.326-0.216 0.521v11.374h-4.389v-11.374c0-0.195-0.078-0.383-0.216-0.521s-0.326-0.216-0.521-0.216h-4.162v-4.2h4.162c0.195 0 0.383-0.078 0.521-0.216s0.216-0.326 0.216-0.521v-4.188c0-4.235 2.454-6.764 6.562-6.764 1.487 0 2.829 0.081 3.643 0.152v3.674z"></path>
</symbol>
<symbol id="icon-footer_instagram" viewBox="0 0 32 32">
<path d="M16 8.897c-1.405 0-2.778 0.417-3.946 1.197s-2.079 1.89-2.616 3.188-0.678 2.726-0.404 4.104c0.274 1.378 0.951 2.643 1.944 3.637s2.259 1.67 3.637 1.944c1.378 0.274 2.806 0.133 4.104-0.404s2.407-1.448 3.188-2.616c0.781-1.168 1.197-2.541 1.197-3.946 0-1.884-0.748-3.69-2.080-5.022s-3.139-2.080-5.023-2.080zM16 21.25c-1.038 0-2.053-0.308-2.917-0.885s-1.536-1.397-1.934-2.356c-0.397-0.959-0.501-2.015-0.299-3.033s0.703-1.954 1.437-2.688 1.67-1.234 2.688-1.437c1.018-0.203 2.074-0.099 3.033 0.299s1.779 1.070 2.356 1.934c0.577 0.863 0.885 1.878 0.885 2.917-0.004 1.391-0.558 2.724-1.542 3.708s-2.317 1.538-3.708 1.542zM22.794 0.868h-13.588c-2.211 0-4.332 0.878-5.896 2.442s-2.442 3.685-2.442 5.896v13.588c0 2.211 0.878 4.332 2.442 5.896s3.685 2.442 5.896 2.442h13.588c2.211 0 4.332-0.878 5.896-2.442s2.442-3.685 2.442-5.896v-13.588c0-2.211-0.878-4.332-2.442-5.896s-3.685-2.442-5.896-2.442zM29.279 22.794c0 1.72-0.683 3.369-1.899 4.586s-2.866 1.899-4.586 1.899h-13.588c-1.72 0-3.37-0.683-4.586-1.899s-1.899-2.866-1.899-4.586v-13.588c0-1.72 0.683-3.37 1.899-4.586s2.866-1.899 4.586-1.899h13.588c1.72 0 3.369 0.683 4.586 1.899s1.899 2.866 1.899 4.586v13.588zM25.574 7.971c0 0.305-0.091 0.604-0.26 0.858s-0.411 0.452-0.693 0.569c-0.282 0.117-0.593 0.148-0.892 0.088s-0.575-0.207-0.791-0.423c-0.216-0.216-0.363-0.491-0.423-0.791s-0.029-0.61 0.088-0.892 0.315-0.523 0.569-0.693c0.254-0.17 0.552-0.26 0.858-0.26 0.41 0 0.802 0.163 1.092 0.452s0.452 0.682 0.452 1.092z"></path>
</symbol>
<symbol id="icon-footer_telephone" viewBox="0 0 29 32">
<path d="M26.637 23.305l-0.182-0.227c-1.441-1.821-2.645-2.769-3.678-2.894-0.893-0.122-1.757 0.496-2.675 1.131l-0.981 0.613c-0.118 0.059-0.234 0.106-0.343 0.139-0.574 0.162-2.023 0.258-2.843-0.493-0.955-0.874-2.436-2.472-3.588-3.87-1.1-1.446-2.31-3.249-2.941-4.385-0.533-0.962-0.087-2.307 0.211-2.806 0.059-0.098 0.136-0.195 0.221-0.29l0.865-0.799c0.013-0.013 0.018-0.028 0.029-0.039 0.008-0.008 0.022-0.006 0.032-0.013 0.781-0.659 1.589-1.338 1.7-2.211 0.13-1.025-0.507-2.411-1.95-4.231l-0.176-0.227c-0.893-1.145-2.244-2.877-4.185-2.591-0.763 0.113-1.445 0.374-2.148 0.815-0.007 0.004-0.011 0.013-0.017 0.017s-0.013 0.004-0.018 0.008l-0.979 0.725c-0.010 0.006-0.015 0.018-0.025 0.027-0.007 0.007-0.018 0.008-0.027 0.015-0.113 0.095-0.227 0.193-0.339 0.294-0.993 0.885-3.142 3.454-1.676 8.205 0.946 3.069 2.898 6.65 5.657 10.377l-0.027 0.022 1.522 1.896 0.013-0.010c2.992 3.539 6.037 6.275 8.827 7.931 1.862 1.106 3.489 1.471 4.827 1.471 1.761 0 3.023-0.633 3.655-1.044l0.398-0.266c0.045-0.031 0.077-0.074 0.109-0.113l0.867-0.652c0.010-0.008 0.015-0.020 0.025-0.028 0.004-0.004 0.011-0.003 0.017-0.007 0.616-0.563 1.043-1.152 1.34-1.851 0.769-1.791-0.608-3.506-1.518-4.641zM27.126 27.507c-0.231 0.543-0.568 1.005-1.056 1.453l-1.289 0.97c-1.168 0.759-3.664 1.697-7.29-0.456-2.79-1.656-5.862-4.456-8.884-8.098l-0.818-1.033c-2.846-3.774-4.848-7.389-5.793-10.452-1.228-3.983 0.319-6.119 1.355-7.042 0.105-0.095 0.21-0.183 0.314-0.272l0.004-0.004 0.939-0.696c0.571-0.361 1.1-0.563 1.709-0.655 1.301-0.196 2.359 1.176 3.136 2.173l0.182 0.231c1.613 2.034 1.768 3.002 1.718 3.396-0.056 0.438-0.722 1-1.31 1.494l-0.083 0.070c-0.003 0.003-0.004 0.007-0.007 0.010-0.004 0.003-0.008 0.004-0.013 0.007l-0.895 0.827c-0.006 0.006-0.008 0.013-0.014 0.020s-0.017 0.010-0.022 0.017c-0.139 0.155-0.258 0.311-0.354 0.472-0.503 0.841-0.977 2.58-0.228 3.926 0.654 1.176 1.898 3.034 3.042 4.535 1.196 1.45 2.72 3.097 3.709 4 0.741 0.676 1.771 0.903 2.663 0.903 0.477 0 0.916-0.066 1.247-0.16 0.175-0.050 0.356-0.123 0.542-0.214 0.011-0.006 0.017-0.015 0.028-0.022 0.006-0.003 0.014-0.001 0.020-0.006l1.039-0.65c0.034-0.022 0.056-0.052 0.084-0.080l0.013 0.014c0.64-0.444 1.369-0.965 1.826-0.889 0.405 0.049 1.323 0.438 2.939 2.478l0.186 0.234c0.787 0.981 1.865 2.325 1.362 3.5z"></path>
</symbol>
<symbol id="icon-Header_facebook" viewBox="0 0 19 32">
    <path d="M17.64 1.245c-1.484-0.157-2.976-0.234-4.468-0.23-4.948 0-8.023 3.151-8.023 8.224v3.444h-4.156c-0.195 0-0.382 0.077-0.52 0.215s-0.215 0.325-0.215 0.52v5.664c0 0.195 0.078 0.382 0.215 0.52s0.325 0.215 0.52 0.215h4.156v11.358c0 0.195 0.077 0.382 0.215 0.52s0.325 0.215 0.52 0.215h5.853c0.195 0 0.382-0.077 0.52-0.215s0.216-0.325 0.216-0.52v-11.358h4.143c0.179 0 0.351-0.065 0.485-0.183s0.221-0.28 0.244-0.457l0.731-5.664c0.014-0.104 0.005-0.209-0.026-0.31s-0.082-0.193-0.151-0.271c-0.069-0.079-0.154-0.142-0.25-0.185s-0.199-0.065-0.304-0.065h-4.874v-2.882c0-1.427 0.287-2.023 2.072-2.023h3c0.195 0 0.382-0.077 0.52-0.215s0.215-0.325 0.215-0.52v-5.069c0-0.179-0.065-0.351-0.183-0.485s-0.28-0.221-0.457-0.244zM16.809 6.306l-2.266 0.001c-3.174 0-3.541 1.995-3.541 3.494v3.619c0 0.195 0.077 0.382 0.215 0.52s0.324 0.216 0.519 0.216h4.776l-0.543 4.193h-4.231c-0.195 0-0.382 0.078-0.52 0.215s-0.215 0.325-0.215 0.52v11.355h-4.381v-11.355c0-0.195-0.077-0.382-0.215-0.52s-0.325-0.215-0.52-0.215h-4.155v-4.193h4.155c0.195 0 0.382-0.077 0.52-0.215s0.215-0.325 0.215-0.52v-4.181c0-4.228 2.45-6.753 6.552-6.753 1.484 0 2.825 0.081 3.637 0.152v3.668z"></path>
</symbol>
<symbol id="icon-header_instagram" viewBox="0 0 32 32">
<path d="M16 8.923c-1.4 0-2.768 0.415-3.932 1.193s-2.071 1.883-2.607 3.176c-0.536 1.293-0.676 2.716-0.403 4.089s0.947 2.634 1.937 3.623c0.99 0.99 2.251 1.664 3.623 1.937s2.796 0.133 4.089-0.403c1.293-0.536 2.398-1.443 3.176-2.607s1.193-2.532 1.193-3.932c0-1.877-0.746-3.677-2.073-5.004s-3.127-2.073-5.004-2.073zM16 21.231c-1.035 0-2.046-0.307-2.906-0.882s-1.531-1.392-1.927-2.347-0.499-2.008-0.298-3.022c0.202-1.015 0.7-1.947 1.432-2.678s1.664-1.23 2.678-1.432c1.015-0.202 2.066-0.098 3.022 0.298s1.773 1.066 2.347 1.927c0.575 0.86 0.882 1.871 0.882 2.906-0.004 1.386-0.556 2.714-1.537 3.694s-2.308 1.532-3.694 1.537zM22.769 0.923h-13.538c-2.203 0-4.316 0.875-5.874 2.433s-2.433 3.671-2.433 5.874v13.538c0 2.203 0.875 4.316 2.433 5.874s3.671 2.433 5.874 2.433h13.538c2.203 0 4.316-0.875 5.874-2.433s2.433-3.671 2.433-5.874v-13.538c0-2.203-0.875-4.316-2.433-5.874s-3.671-2.433-5.874-2.433zM29.231 22.769c0 1.714-0.681 3.357-1.893 4.569s-2.855 1.893-4.569 1.893h-13.538c-1.714 0-3.357-0.681-4.569-1.893s-1.893-2.855-1.893-4.569v-13.538c0-1.714 0.681-3.357 1.893-4.569s2.855-1.893 4.569-1.893h13.538c1.714 0 3.357 0.681 4.569 1.893s1.893 2.855 1.893 4.569v13.538zM25.538 8c0 0.304-0.090 0.602-0.259 0.855s-0.409 0.45-0.69 0.567c-0.281 0.116-0.591 0.147-0.889 0.088s-0.573-0.206-0.788-0.421-0.362-0.489-0.421-0.788c-0.059-0.298-0.029-0.608 0.088-0.889s0.314-0.521 0.567-0.69c0.253-0.169 0.551-0.259 0.855-0.259 0.408 0 0.799 0.162 1.088 0.451s0.451 0.68 0.451 1.088z"></path>
</symbol>
<symbol id="icon-header_telephone" viewBox="0 0 32 32">
<path d="M27.655 22.957l-0.173-0.216c-1.372-1.735-2.519-2.637-3.503-2.756-0.851-0.116-1.673 0.472-2.548 1.077l-0.935 0.584c-0.112 0.056-0.223 0.101-0.327 0.132-0.547 0.155-1.927 0.245-2.708-0.469-0.909-0.832-2.32-2.355-3.417-3.685-1.048-1.377-2.2-3.095-2.801-4.176-0.508-0.916-0.083-2.197 0.201-2.672 0.056-0.093 0.129-0.185 0.211-0.276l0.824-0.761c0.012-0.012 0.017-0.027 0.028-0.037 0.008-0.008 0.021-0.005 0.031-0.012 0.744-0.628 1.513-1.275 1.619-2.105 0.124-0.976-0.483-2.296-1.857-4.029l-0.168-0.216c-0.851-1.091-2.137-2.74-3.985-2.468-0.727 0.108-1.376 0.356-2.045 0.776-0.007 0.004-0.011 0.012-0.016 0.016s-0.012 0.004-0.017 0.008l-0.932 0.691c-0.009 0.005-0.015 0.017-0.024 0.025-0.007 0.007-0.017 0.008-0.025 0.015-0.108 0.091-0.216 0.184-0.323 0.28-0.945 0.843-2.992 3.289-1.596 7.815 0.901 2.923 2.76 6.333 5.388 9.883l-0.025 0.021 1.449 1.805 0.012-0.009c2.849 3.371 5.749 5.976 8.407 7.553 1.773 1.053 3.323 1.401 4.597 1.401 1.677 0 2.879-0.603 3.481-0.995l0.379-0.253c0.043-0.029 0.073-0.071 0.104-0.108l0.825-0.621c0.009-0.008 0.015-0.019 0.024-0.027 0.004-0.004 0.011-0.003 0.016-0.007 0.587-0.536 0.993-1.097 1.276-1.763 0.732-1.705-0.579-3.339-1.445-4.42zM28.12 26.959c-0.22 0.517-0.541 0.957-1.005 1.384l-1.228 0.924c-1.112 0.723-3.489 1.616-6.943-0.435-2.657-1.577-5.583-4.244-8.461-7.712l-0.779-0.984c-2.711-3.595-4.617-7.037-5.517-9.955-1.169-3.793 0.304-5.828 1.291-6.707 0.1-0.091 0.2-0.175 0.299-0.259l0.004-0.004 0.895-0.663c0.544-0.344 1.048-0.536 1.628-0.624 1.239-0.187 2.247 1.12 2.987 2.069l0.173 0.22c1.536 1.937 1.684 2.859 1.636 3.235-0.053 0.417-0.688 0.952-1.248 1.423l-0.079 0.067c-0.003 0.003-0.004 0.007-0.007 0.009-0.004 0.003-0.008 0.004-0.012 0.007l-0.852 0.788c-0.005 0.005-0.008 0.012-0.013 0.019s-0.016 0.009-0.021 0.016c-0.132 0.148-0.245 0.296-0.337 0.449-0.479 0.801-0.931 2.457-0.217 3.739 0.623 1.12 1.808 2.889 2.897 4.319 1.139 1.381 2.591 2.949 3.532 3.809 0.705 0.644 1.687 0.86 2.536 0.86 0.455 0 0.872-0.063 1.188-0.152 0.167-0.048 0.339-0.117 0.516-0.204 0.011-0.005 0.016-0.015 0.027-0.021 0.005-0.003 0.013-0.001 0.019-0.005l0.989-0.619c0.032-0.021 0.053-0.049 0.080-0.076l0.012 0.013c0.609-0.423 1.304-0.919 1.739-0.847 0.385 0.047 1.26 0.417 2.799 2.36l0.177 0.223c0.749 0.935 1.776 2.215 1.297 3.333z"></path>
</symbol>
</defs>
</svg>
